# xmcd
#
# Track frame offsets:
# 150
# 18602
# 37189
# 72635
# 88952
# 111795
# 131201
# 150188
# 170409
# 187907
# 208064
# 224964
# 245992
# 264295
#
# Disc length: 3788 seconds
#
#
# Revision: 0
# Processed by: cddbd v1.4PL0 Copyright (c) Steve Scherf et al.
# Submitted via: FreeRIP 2.35 
#
DISCID=dc0eca0e
DTITLE=Ricardo Arjona - Santo Pecado
DYEAR=2003
DGENRE=Ballad
TTITLE0=El Problema
TTITLE1=Dame
TTITLE2=Queso, Cosas, Casas
TTITLE3=Minutos
TTITLE4=Vivir Si ti es Posible
TTITLE5=Santo Pecado
TTITLE6=Mujer de Lujo
TTITLE7=Señor Juez
TTITLE8=Se Fue
TTITLE9=La Nena(Bitacora de un Seuestro)
TTITLE10=Me Dejaste
TTITLE11=No Sirve de Nada
TTITLE12=Duele Verte
TTITLE13=Amarte a Ti
EXTD=
EXTT0=
EXTT1=
EXTT2=
EXTT3=
EXTT4=
EXTT5=
EXTT6=
EXTT7=
EXTT8=
EXTT9=
EXTT10=
EXTT11=
EXTT12=
EXTT13=
PLAYORDER=
